<?xml version="1.0" encoding="UTF-8" standalone="no"?>
<!-- Created with Inkscape (http://www.inkscape.org/) -->

<svg
   xmlns:osb="http://www.openswatchbook.org/uri/2009/osb"
   xmlns:dc="http://purl.org/dc/elements/1.1/"
   xmlns:cc="http://creativecommons.org/ns#"
   xmlns:rdf="http://www.w3.org/1999/02/22-rdf-syntax-ns#"
   xmlns:svg="http://www.w3.org/2000/svg"
   xmlns="http://www.w3.org/2000/svg"
   xmlns:xlink="http://www.w3.org/1999/xlink"
   xmlns:sodipodi="http://sodipodi.sourceforge.net/DTD/sodipodi-0.dtd"
   xmlns:inkscape="http://www.inkscape.org/namespaces/inkscape"
   width="32"
   height="32"
   id="svg9052"
   version="1.1"
   inkscape:version="0.91 r13725"
   viewBox="0 0 32 32"
   sodipodi:docname="anger.svg"
   inkscape:export-filename="/home/tom/w48.png"
   inkscape:export-xdpi="137.83214"
   inkscape:export-ydpi="137.83214">
  <defs
     id="defs9054">
    <linearGradient
       id="linearGradient11150"
       osb:paint="solid">
      <stop
         style="stop-color:#000000;stop-opacity:1;"
         offset="0"
         id="stop11152" />
    </linearGradient>
    <linearGradient
       inkscape:collect="always"
       id="linearGradient11124"
       osb:paint="gradient">
      <stop
         style="stop-color:#ff0015;stop-opacity:1"
         offset="0"
         id="stop11126" />
      <stop
         style="stop-color:#fdff00;stop-opacity:1"
         offset="1"
         id="stop11128" />
    </linearGradient>
    <linearGradient
       inkscape:collect="always"
       xlink:href="#linearGradient11247"
       id="linearGradient11253"
       x1="5.5334721"
       y1="10.140256"
       x2="10.162677"
       y2="7.031147"
       gradientUnits="userSpaceOnUse" />
    <linearGradient
       inkscape:collect="always"
       id="linearGradient11247">
      <stop
         style="stop-color:#000000;stop-opacity:1"
         offset="0"
         id="stop11249" />
      <stop
         style="stop-color:#000000;stop-opacity:1"
         offset="1"
         id="stop11251" />
    </linearGradient>
    <linearGradient
       inkscape:collect="always"
       xlink:href="#linearGradient11124"
       id="linearGradient11302"
       x1="3.9888887"
       y1="24.944595"
       x2="29.326403"
       y2="6.4425449"
       gradientUnits="userSpaceOnUse"
       gradientTransform="translate(0.015625,-0.00390625)" />
  </defs>
  <sodipodi:namedview
     id="base"
     pagecolor="#ffffff"
     bordercolor="#666666"
     borderopacity="1.0"
     inkscape:pageopacity="0.0"
     inkscape:pageshadow="2"
     inkscape:zoom="11.313709"
     inkscape:cx="13.602206"
     inkscape:cy="21.891275"
     inkscape:current-layer="layer1"
     showgrid="true"
     inkscape:grid-bbox="true"
     inkscape:document-units="px"
     inkscape:window-width="1319"
     inkscape:window-height="744"
     inkscape:window-x="47"
     inkscape:window-y="393"
     inkscape:window-maximized="1" />
  <metadata
     id="metadata9057">
    <rdf:RDF>
      <cc:Work
         rdf:about="">
        <dc:format>image/svg+xml</dc:format>
        <dc:type
           rdf:resource="http://purl.org/dc/dcmitype/StillImage" />
      </cc:Work>
    </rdf:RDF>
  </metadata>
  <g
     id="layer1"
     inkscape:label="Layer 1"
     inkscape:groupmode="layer">
    <rect
       style="opacity:1;fill:url(#linearGradient11302);fill-opacity:1;fill-rule:evenodd;stroke:#801b1b;stroke-width:0;stroke-miterlimit:4;stroke-dasharray:none;stroke-opacity:1"
       id="rect9060"
       width="30.452404"
       height="30.184496"
       x="0.78402543"
       y="1.0078695"
       ry="2.7684004"
       rx="14.33317" />
    <text
       xml:space="preserve"
       style="font-style:normal;font-variant:normal;font-weight:normal;font-stretch:normal;font-size:30px;line-height:125%;font-family:'Liberation Mono';-inkscape-font-specification:'Liberation Mono';letter-spacing:0px;word-spacing:0px;fill:#000000;fill-opacity:1;stroke:none;stroke-width:1px;stroke-linecap:butt;stroke-linejoin:miter;stroke-opacity:1"
       x="10.419693"
       y="28.816496"
       id="text11222"
       sodipodi:linespacing="125%"><tspan
         sodipodi:role="line"
         id="tspan11224"
         x="10.419693"
         y="28.816496">W</tspan></text>
    <path
       style="fill:none;fill-rule:evenodd;stroke:#000000;stroke-width:1px;stroke-linecap:butt;stroke-linejoin:miter;stroke-opacity:1"
       d="m 26.07968,9.1408126 c 0,0 -10.419243,-8.96686363 -19.7018404,-2.9047586"
       id="path11228"
       inkscape:connector-curvature="0" />
    <path
       style="fill:none;fill-rule:evenodd;stroke:#000000;stroke-width:1.10234582px;stroke-linecap:butt;stroke-linejoin:miter;stroke-opacity:1"
       d="m 28.018251,9.4476003 c 0,0 -10.500239,-10.6562892 -23.0712201,-6.4717853"
       id="path11228-9"
       inkscape:connector-curvature="0" />
    <path
       style="fill:none;fill-rule:evenodd;stroke:#000000;stroke-width:1px;stroke-linecap:butt;stroke-linejoin:miter;stroke-opacity:1"
       d="m 26.71115,9.5196941 c -0.0421,-0.084196 -0.0842,-0.1683918 -0.126294,-0.2525877 0,-0.042098 0.01331,-0.086356 0,-0.1262938 -0.0094,-0.02824 -0.04663,-0.038379 -0.06315,-0.063147 -0.05934,-0.089005 -0.06696,-0.1635821 -0.126294,-0.2525877 -0.01651,-0.024768 -0.04663,-0.038379 -0.06315,-0.063147 -0.02611,-0.039162 -0.03704,-0.087132 -0.06315,-0.1262939 -0.03832,-0.057484 -0.161456,-0.1334712 -0.18944,-0.1894407 -0.0094,-0.018827 0.01488,-0.048263 0,-0.063147 -0.01488,-0.014884 -0.04432,0.00941 -0.06315,0 -0.262803,-0.1314012 0.06751,0.00436 -0.06315,-0.1262938 -0.01488,-0.014884 -0.04826,0.014884 -0.06315,0 -0.01488,-0.014884 0.01488,-0.048263 0,-0.063147 -0.01488,-0.014884 -0.04826,0.014884 -0.06315,0 -0.01488,-0.014884 0.01488,-0.048263 0,-0.063147 -0.01488,-0.014884 -0.04432,0.00941 -0.06315,0 -0.02662,-0.013312 -0.03652,-0.049834 -0.06315,-0.063147 -0.01883,-0.00941 -0.04826,0.014884 -0.06315,0 -0.01488,-0.014884 0.01488,-0.048263 0,-0.063147 -0.01488,-0.014884 -0.04432,0.00941 -0.06315,0 -0.02662,-0.013313 -0.03652,-0.049834 -0.06315,-0.063147 -0.01883,-0.00941 -0.04432,0.00941 -0.06315,0 -0.05325,-0.026625 -0.07676,-0.09327 -0.126293,-0.1262939 -0.03916,-0.026108 -0.08713,-0.037039 -0.126294,-0.063147 -0.02477,-0.016512 -0.03491,-0.053734 -0.06315,-0.063147 -0.03994,-0.013313 -0.08636,0.013313 -0.126294,0 -0.02824,-0.00941 -0.03491,-0.053734 -0.06315,-0.063147 -0.03994,-0.013312 -0.0842,0 -0.126294,0 -0.02105,0 -0.04432,0.00941 -0.06315,0 -0.02662,-0.013312 -0.03491,-0.053733 -0.06315,-0.063147 -0.03994,-0.013313 -0.0842,0 -0.126294,0 -0.02105,0 -0.04432,0.00941 -0.06315,0 -0.02663,-0.013313 -0.03652,-0.049834 -0.06315,-0.063147 -0.03765,-0.018827 -0.08864,0.018827 -0.126294,0 -0.0849,-0.042448 -0.0414,-0.083846 -0.126294,-0.1262939 -0.03765,-0.018827 -0.09653,0.029768 -0.126294,0 -0.01488,-0.014884 0.01488,-0.048263 0,-0.063147 -0.02977,-0.029768 -0.09653,0.029768 -0.126294,0 -0.01488,-0.014884 0.01488,-0.048263 0,-0.063147 -0.02102,-0.021024 -0.10527,0.021024 -0.126294,0 -0.01488,-0.014884 0.01488,-0.048263 0,-0.063147 -0.01488,-0.014884 -0.04826,0.014884 -0.06315,0 -0.01488,-0.014884 0.01488,-0.048263 0,-0.063147 -0.01488,-0.014884 -0.04432,0.00941 -0.06315,0 -0.05325,-0.026625 -0.07304,-0.099669 -0.126293,-0.1262938 -0.01883,-0.00941 -0.04432,0.00941 -0.06315,0 -0.05325,-0.026625 -0.07304,-0.099669 -0.126294,-0.1262939 -0.01883,-0.00941 -0.04826,0.014884 -0.06315,0 -0.01488,-0.014884 0.0094,-0.04432 0,-0.063147 -0.01331,-0.026625 -0.0421,-0.042098 -0.06315,-0.063147 -0.02105,-0.021049 -0.03838,-0.046635 -0.06315,-0.063147 -0.03916,-0.026108 -0.08713,-0.037039 -0.126294,-0.063147 -0.125098,0.0063 -0.02987,-0.093012 -0.06315,-0.1262939 -0.01488,-0.014884 -0.04432,0.00941 -0.06315,0 -0.02662,-0.013313 -0.03652,-0.049834 -0.06315,-0.063147 -0.01883,-0.00941 -0.04432,0.00941 -0.06315,0 -0.02663,-0.013312 -0.03652,-0.049834 -0.06315,-0.063147 -0.01883,-0.00941 -0.04432,0.00941 -0.06315,0 -0.05325,-0.026625 -0.07304,-0.099669 -0.126294,-0.1262939 -0.01883,-0.00941 -0.04826,0.014884 -0.06315,0 -0.01488,-0.014884 0.01488,-0.048263 0,-0.063147 -0.02114,-0.021143 -0.105151,0.021143 -0.126294,0 -0.01488,-0.014884 0.01488,-0.048263 0,-0.063147 -0.01488,-0.014884 -0.04826,0.014884 -0.06315,0 -0.01488,-0.014884 0.01488,-0.048263 0,-0.063147 -0.01488,-0.014884 -0.04432,0.00941 -0.06315,0 -0.02662,-0.013313 -0.03652,-0.049834 -0.06315,-0.063147 -0.01883,-0.00941 -0.04826,0.014884 -0.06315,0 -0.01488,-0.014884 0.01488,-0.048263 0,-0.063147 -0.01488,-0.014884 -0.04432,0.00941 -0.06315,0 -0.02662,-0.013313 -0.03652,-0.049834 -0.06315,-0.063147 -0.01883,-0.00941 -0.04826,0.014884 -0.06315,0 -0.01488,-0.014884 0.01488,-0.048263 0,-0.063147 -0.01488,-0.014884 -0.04826,0.014884 -0.06315,0 -0.01488,-0.014884 0.01488,-0.048263 0,-0.063147 -0.02977,-0.029768 -0.08864,0.018827 -0.126294,0 -0.02663,-0.013313 -0.03652,-0.049834 -0.06315,-0.063147 -0.01883,-0.00941 -0.04432,0.00941 -0.06315,0 -0.02662,-0.013312 -0.03652,-0.049834 -0.06315,-0.063147 -0.01883,-0.00941 -0.04432,0.00941 -0.06315,0 -0.02662,-0.013313 -0.03838,-0.046635 -0.06315,-0.063147 -0.03916,-0.026108 -0.08713,-0.037039 -0.126294,-0.063147 -0.04954,-0.033024 -0.07304,-0.099669 -0.126294,-0.1262938 -0.03765,-0.018827 -0.09653,0.029768 -0.126293,0 -0.01488,-0.014884 0.01488,-0.048263 0,-0.063147 -0.02114,-0.021143 -0.105151,0.021143 -0.126294,0 -0.01488,-0.014884 0.01488,-0.048263 0,-0.063147 -0.02977,-0.029768 -0.08864,0.018827 -0.126294,0 -0.02662,-0.013312 -0.0421,-0.042098 -0.06315,-0.063147 -0.06315,0 -0.128179,0.015315 -0.189441,0 -0.02888,-0.00722 -0.03838,-0.046635 -0.06315,-0.063147 -0.275797,-0.1838647 0.02082,0.027987 -0.252587,-0.063147 -0.02824,-0.00941 -0.03652,-0.049834 -0.06315,-0.063147 -0.05052,-0.025259 -0.138924,0.025259 -0.189441,0 -0.02663,-0.013313 -0.03652,-0.049834 -0.06315,-0.063147 -0.03765,-0.018827 -0.08864,0.018827 -0.126294,0 -0.02662,-0.013313 -0.03652,-0.049834 -0.06315,-0.063147 -0.03765,-0.018827 -0.08864,0.018827 -0.126294,0 -0.02662,-0.013312 -0.03491,-0.053733 -0.06315,-0.063147 -0.287462,0 -0.0036,0.029768 -0.18944,-0.063147 -0.05052,-0.025259 -0.138924,0.025259 -0.189441,0 -0.02662,-0.013312 -0.03652,-0.049834 -0.06315,-0.063147 -0.03765,-0.018827 -0.08864,0.018827 -0.126294,0 -0.02663,-0.013313 -0.03652,-0.049834 -0.06315,-0.063147 -0.01883,-0.00941 -0.04432,0.00941 -0.06315,0 -0.02662,-0.013312 -0.03652,-0.049834 -0.06315,-0.063147 -0.03765,-0.018827 -0.09653,0.029768 -0.126294,0 -0.01488,-0.014884 0.01488,-0.048263 0,-0.063147 -0.01291,-0.012909 -0.164403,0.012519 -0.18944,0 -0.02663,-0.013313 -0.03491,-0.053734 -0.06315,-0.063147 -0.05683,-0.018944 -0.132609,0.018944 -0.189441,0 -0.4574,-0.1524665 0.09956,0.018205 -0.189441,-0.1262939 -0.01883,-0.00941 -0.04318,0.00666 -0.06315,0 -0.0893,-0.029768 -0.163284,-0.096526 -0.252588,-0.1262938 -0.05683,-0.018944 -0.132608,0.018944 -0.18944,0 -0.02824,-0.00941 -0.03652,-0.049834 -0.06315,-0.063147 -0.01883,-0.00941 -0.04318,0.00666 -0.06315,0 -0.04465,-0.014884 -0.08164,-0.048263 -0.126294,-0.063147 -0.01997,-0.00666 -0.04432,0.00941 -0.06315,0 -0.02662,-0.013313 -0.03652,-0.049834 -0.06315,-0.063147 -0.03765,-0.018827 -0.09653,0.029768 -0.126294,0 -0.01488,-0.014884 0.01883,-0.053734 0,-0.063147 -0.03765,-0.018827 -0.08636,0.013313 -0.126294,0 -0.02824,-0.00941 -0.03652,-0.049834 -0.06315,-0.063147 -0.01883,-0.00941 -0.0421,0 -0.06315,0 -0.0421,0 -0.08636,0.013313 -0.126294,0 -0.02824,-0.00941 -0.03652,-0.049834 -0.06315,-0.063147 -0.01883,-0.00941 -0.04318,0.00666 -0.06315,0 -0.143353,-0.047784 -0.109235,-0.07851 -0.252588,-0.1262939 -0.03994,-0.013313 -0.08636,0.013313 -0.126294,0 -0.04465,-0.014884 -0.08164,-0.048263 -0.126294,-0.063147 -0.01997,-0.00666 -0.04318,0.00666 -0.06315,0 -0.4574,-0.1524665 0.09956,0.018205 -0.189441,-0.1262938 -0.01883,-0.00941 -0.04432,0.00941 -0.06315,0 -0.02662,-0.013313 -0.03491,-0.053734 -0.06315,-0.063147 -0.03994,-0.013313 -0.08864,0.018827 -0.126294,0 -0.01883,-0.00941 0.01488,-0.048263 0,-0.063147 -0.02977,-0.029768 -0.08864,0.018827 -0.126294,0 -0.02663,-0.013313 -0.03652,-0.049834 -0.06315,-0.063147 -0.02504,-0.012519 -0.176531,0.01291 -0.189441,0 -0.01488,-0.014884 0.01488,-0.048263 0,-0.063147 -0.01291,-0.01291 -0.164403,0.012519 -0.18944,0 -0.02663,-0.013313 -0.03491,-0.053734 -0.06315,-0.063147 -0.07987,-0.026625 -0.172713,0.026625 -0.252588,0 -0.02824,-0.00941 -0.03652,-0.049834 -0.06315,-0.063147 -0.03969,-0.019845 -0.212898,0.019845 -0.252588,0 -0.02663,-0.013313 -0.03652,-0.049834 -0.06315,-0.063147 -0.01883,-0.00941 -0.0421,0 -0.06315,0 -0.02105,0 -0.0421,0 -0.06315,0 -0.126294,0 -0.252588,0 -0.378882,0 -0.273637,0 -0.547273,0 -0.82091,0 -0.21049,0 -0.420979,0 -0.631469,0 -0.02105,0 -0.0421,0 -0.06315,0 -0.02105,0 -0.04826,-0.014884 -0.06315,0 -0.01488,0.014884 0.01488,0.048263 0,0.063147 -0.0152,0.015195 -0.237393,-0.015195 -0.252588,0 -0.01488,0.014884 0.01488,0.048263 0,0.063147 -0.01291,0.01291 -0.164403,-0.012519 -0.189441,0 -0.02662,0.013313 -0.03652,0.049834 -0.06315,0.063147 -0.05052,0.025259 -0.138924,-0.025259 -0.189441,0 -0.02662,0.013313 -0.03652,0.049834 -0.06315,0.063147 -0.03765,0.018827 -0.09653,-0.029768 -0.126294,0 -0.01488,0.014884 0.01488,0.048263 0,0.063147 -0.01519,0.015195 -0.237393,-0.015195 -0.252588,0 -0.01488,0.014884 0.01488,0.048263 0,0.063147 -0.0029,0.00286 -0.285961,0 -0.315734,0 -0.02105,0 -0.04826,-0.014884 -0.06315,0 -0.01488,0.014884 0.01488,0.048263 0,0.063147 -0.01488,0.014884 -0.0421,0 -0.06315,0 -0.02105,0 -0.0421,0 -0.06315,0 -0.105245,0 -0.21049,0 -0.315735,0 -0.02105,0 -0.0421,0 -0.06315,0 -0.02105,0 -0.04432,-0.00941 -0.06315,0 -0.02663,0.013313 -0.03652,0.049834 -0.063147,0.063147 -0.037653,0.018827 -0.096526,-0.029768 -0.1262938,0 -0.014884,0.014884 0.014884,0.048263 0,0.063147 -0.031574,0.031573 -0.1578674,-0.031573 -0.1894408,0 -0.014884,0.014884 0.014884,0.048263 0,0.063147 -0.014884,0.014884 -0.042098,0 -0.063147,0 -0.021049,0 -0.042098,0 -0.063147,0 -0.044759,0 -0.3625549,-0.00816 -0.3788815,0 -0.026625,0.013313 -0.042098,0.042098 -0.063147,0.063147"
       id="path11255"
       inkscape:connector-curvature="0" />
    <path
       style="fill:none;fill-rule:evenodd;stroke:#000000;stroke-width:1px;stroke-linecap:butt;stroke-linejoin:miter;stroke-opacity:1"
       d="m 6.5672804,3.2050015 c 0.086469,-0.2737267 0.257416,-0.022658 0.3788815,-0.063147 0.044652,-0.014884 0.081642,-0.048263 0.1262939,-0.063147 0.019969,-0.00666 0.043178,0.00666 0.063147,0 0.044652,-0.014884 0.081642,-0.048263 0.1262939,-0.063147 0.019969,-0.00666 0.04432,0.00941 0.063147,0 0.026625,-0.013313 0.036522,-0.049834 0.063147,-0.063147 0.018827,-0.00941 0.04432,0.00941 0.063147,0 0.05325,-0.026625 0.069814,-0.107467 0.1262939,-0.1262938 0.015742,-0.00525 0.3092297,0.0065 0.3157346,0 0.014884,-0.014884 -0.014884,-0.048263 0,-0.063147 0.014884,-0.014884 0.042098,0 0.063147,0 0.021049,0 0.042098,0 0.063147,0 0.1683918,0 0.3367836,0 0.5051754,0 0.5683223,0 1.1366447,0 1.7049674,0 0.02319,0 0.250047,-0.00254 0.252588,0 0.01488,0.014884 -0.01488,0.048263 0,0.063147 0.01488,0.014884 0.0421,0 0.06315,0 0.02105,0 0.0421,0 0.06315,0 0.273636,0 0.547273,0 0.82091,0"
       id="path11257"
       inkscape:connector-curvature="0" />
    <path
       style="fill:none;fill-rule:evenodd;stroke:#000000;stroke-width:1px;stroke-linecap:butt;stroke-linejoin:miter;stroke-opacity:1"
       d="m 7.9565128,3.9627646 c 1.704967,0 3.4099342,0 5.1149012,0 0.273636,0 0.547273,0 0.82091,0 0.02105,0 0.0421,0 0.06315,0 0.02105,0 0.04826,0.014884 0.06315,0 0.01488,-0.014884 -0.01488,-0.048263 0,-0.063147 0.03157,-0.031573 0.157867,0.031573 0.18944,0 0.01488,-0.014884 -0.01488,-0.048263 0,-0.063147 0.02977,-0.029768 0.08864,0.018827 0.126294,0 0.02662,-0.013313 0.03652,-0.049834 0.06315,-0.063147 0.03765,-0.018827 0.09653,0.029768 0.126294,0 0.01488,-0.014884 -0.01488,-0.048263 0,-0.063147 0.02977,-0.029768 0.09653,0.029768 0.126294,0 0.01488,-0.014884 -0.01488,-0.048263 0,-0.063147 0.03157,-0.031573 0.157867,0.031573 0.189441,0 0.0842,-0.084196 -0.105245,-0.063147 0.06315,-0.063147"
       id="path11259"
       inkscape:connector-curvature="0" />
    <path
       style="fill:none;fill-rule:evenodd;stroke:#000000;stroke-width:1px;stroke-linecap:butt;stroke-linejoin:miter;stroke-opacity:1"
       d="m 10.671831,2.4472383 c 0.189932,0.1160995 0.371475,0.030339 0.568322,0.063147 0.06566,0.010943 0.126294,0.042098 0.189441,0.063147 0.0842,0.021049 0.166673,0.050873 0.252587,0.063147 0.06251,0.00893 0.127153,-0.010381 0.189441,0 0.06566,0.010943 0.124171,0.050093 0.189441,0.063147 0.04128,0.00826 0.08545,-0.01021 0.126294,0 0.04566,0.011416 0.08164,0.048263 0.126294,0.063147 0.04343,0.014478 0.152183,-0.018629 0.18944,0 0.02663,0.013313 0.03652,0.049834 0.06315,0.063147 0.03765,0.018827 0.08864,-0.018827 0.126294,0 0.209432,0.209432 -0.05954,-0.029768 0.126294,0.063147 0.0849,0.042448 0.0414,0.083846 0.126294,0.1262939 0.01883,0.00941 0.04826,-0.014884 0.06315,0 0.0842,0.084196 -0.105245,0.063147 0.06315,0.063147"
       id="path11261"
       inkscape:connector-curvature="0" />
    <path
       style="fill:none;fill-rule:evenodd;stroke:#000000;stroke-width:1px;stroke-linecap:butt;stroke-linejoin:miter;stroke-opacity:1"
       d="m 7.6407781,3.0155607 c 0.1052449,0.042098 0.2115475,0.081642 0.3157347,0.1262938 0.086523,0.037081 0.1683918,0.084196 0.2525877,0.1262939 0.042098,0.021049 0.087132,0.037039 0.1262938,0.063147 0.049536,0.033024 0.073044,0.099669 0.1262939,0.1262939 0.018827,0.00941 0.04432,-0.00941 0.063147,0 0.026625,0.013313 0.036522,0.049834 0.063147,0.063147 0.018827,0.00941 0.048263,-0.014884 0.063147,0 0.014884,0.014884 -0.014884,0.048263 0,0.063147 0.014884,0.014884 0.048263,-0.014884 0.063147,0 0.014884,0.014884 -0.014884,0.048263 0,0.063147 0.014884,0.014884 0.048263,-0.014884 0.063147,0 0.014884,0.014884 -0.014884,0.048263 0,0.063147 0.014884,0.014884 0.048263,-0.014884 0.063147,0 0.029768,0.029768 -0.029768,0.096526 0,0.1262938 0.014884,0.014884 0.04432,-0.00941 0.063147,0 0.1396213,0.069811 0.019596,0.039192 0.063147,0.1262939 0.013312,0.026625 0.049834,0.036522 0.063147,0.063147 0.042098,0.084196 -0.063147,0.063147 0.063147,0.063147"
       id="path11263"
       inkscape:connector-curvature="0" />
    <path
       style="fill:none;fill-rule:evenodd;stroke:#000000;stroke-width:1px;stroke-linecap:butt;stroke-linejoin:miter;stroke-opacity:1"
       d="m 6.5041334,2.762973 c 0.084196,0.063147 0.1683918,0.1262938 0.2525878,0.1894407 0.021049,0.042098 0.029865,0.093012 0.063147,0.1262939 0.4209795,0.4209795 -0.1473429,-0.3157346 0.1894408,0.1894408 0.038322,0.057484 0.161456,0.1334712 0.1894407,0.1894408 0.00941,0.018827 -0.00941,0.04432 0,0.063147 0.031069,0.062138 0.2215185,0.1904493 0.2525877,0.2525877 0.00941,0.018827 -0.014884,0.048263 0,0.063147 0.014884,0.014884 0.048263,-0.014884 0.063147,0 0.014884,0.014884 -0.014884,0.048263 0,0.063147 0.014884,0.014884 0.048263,-0.014884 0.063147,0 0.014884,0.014884 -0.00941,0.04432 0,0.063147 0.209432,0.209432 -0.029768,-0.059535 0.063147,0.1262938 0.1314012,0.2628024 -0.00436,-0.067506 0.1262939,0.063147 0.014884,0.014884 -0.00941,0.04432 0,0.063147 0.1314012,0.2628024 -0.00436,-0.067506 0.1262938,0.063147 0.029768,0.029768 -0.018827,0.08864 0,0.1262939 0.1314012,0.2628023 -0.00436,-0.067506 0.1262939,0.063147 0.014884,0.014884 -0.00941,0.04432 0,0.063147 0.013312,0.026625 0.049834,0.036522 0.063147,0.063147 0.00941,0.018827 -0.014884,0.048263 0,0.063147 0.084196,0.084196 0.063147,-0.1052449 0.063147,0.063147"
       id="path11265"
       inkscape:connector-curvature="0" />
    <path
       style="fill:none;fill-rule:evenodd;stroke:#000000;stroke-width:1px;stroke-linecap:butt;stroke-linejoin:miter;stroke-opacity:1"
       d="m 5.9358111,2.8261199 c 0.014509,0.1796306 0.2331738,0.1918933 0.3157346,0.3157346 0.061349,0.092023 0.039423,0.1315266 0.1262939,0.1894408 0.039162,0.026108 0.093013,0.029866 0.1262938,0.063147 0.1533714,0.1533714 -0.018778,0.092726 0.1262939,0.1894408 0.039162,0.026108 0.093013,0.029866 0.1262939,0.063147 0.1306532,0.1306533 -0.1996555,-0.00511 0.063147,0.1262939 0.018827,0.00941 0.04432,-0.00941 0.063147,0 0.075776,0.037888 0.1136645,0.1515526 0.1894408,0.1894408 0.018827,0.00941 0.048263,-0.014884 0.063147,0 0.014884,0.014884 -0.014884,0.048263 0,0.063147 0.014884,0.014884 0.048263,-0.014884 0.063147,0 0.014884,0.014884 -0.014884,0.048263 0,0.063147 0.014884,0.014884 0.048263,-0.014884 0.063147,0 0.014884,0.014884 -0.014884,0.048263 0,0.063147 0.014884,0.014884 0.048263,-0.014884 0.063147,0 0.1306532,0.1306532 -0.1996555,-0.00511 0.063147,0.1262938 0.018827,0.00941 0.048263,-0.014884 0.063147,0 0.014884,0.014884 -0.00941,0.04432 0,0.063147 0.00911,0.018229 0.1171793,0.1080647 0.1262939,0.1262939 0.00941,0.018827 -0.014884,0.048263 0,0.063147 0.014884,0.014884 0.048263,-0.014884 0.063147,0 0.014884,0.014884 -0.014884,0.048263 0,0.063147 0.014884,0.014884 0.048263,-0.014884 0.063147,0 0.014884,0.014884 -0.014884,0.048263 0,0.063147 0.1306533,0.1306532 -0.00511,-0.1996555 0.1262939,0.063147 0.00941,0.018827 -0.014884,0.048263 0,0.063147 0.014884,0.014884 0.048263,-0.014884 0.063147,0 0.014884,0.014884 -0.014884,0.048263 0,0.063147 0.062293,0.062293 0.1262939,-0.1293929 0.1262939,0.063147"
       id="path11267"
       inkscape:connector-curvature="0" />
    <path
       sodipodi:type="star"
       style="opacity:1;fill:url(#linearGradient11253);fill-opacity:1;fill-rule:evenodd;stroke:#ffffff;stroke-width:0;stroke-miterlimit:4;stroke-dasharray:none;stroke-opacity:1"
       id="path11245"
       sodipodi:sides="3"
       sodipodi:cx="7.1987495"
       sodipodi:cy="8.8882246"
       sodipodi:r1="6.4304533"
       sodipodi:r2="3.2152267"
       sodipodi:arg1="0.30932883"
       sodipodi:arg2="1.3565264"
       inkscape:flatsided="false"
       inkscape:rounded="0"
       inkscape:randomized="0"
       d="M 13.324001,10.845779 7.8824164,12.029925 2.4408316,13.214071 4.1361237,7.9094472 5.8314157,2.6048236 9.5777086,6.7253015 Z"
       inkscape:transform-center-x="-0.23527063"
       inkscape:transform-center-y="-1.4783593"
       transform="matrix(1.0033618,0.02399289,-0.01243234,1.037349,-2.0175678,-2.9921136)" />
    <path
       style="fill:none;fill-rule:evenodd;stroke:#000000;stroke-width:1px;stroke-linecap:butt;stroke-linejoin:miter;stroke-opacity:1"
       d="m 9.2194513,4.46794 c -0.3904739,0 -0.2370278,0 -0.4420285,0"
       id="path11296"
       inkscape:connector-curvature="0" />
    <path
       style="fill:none;fill-rule:evenodd;stroke:#000000;stroke-width:1px;stroke-linecap:butt;stroke-linejoin:miter;stroke-opacity:1"
       d="m 8.4616882,4.0890584 c 0.2161835,-0.096997 0.2059566,0.1345518 0.3157346,0.1894408 0.018827,0.00941 0.048263,-0.014884 0.063147,0 0.014884,0.014884 -0.00941,0.04432 0,0.063147 0.013313,0.026625 0.049834,0.036522 0.063147,0.063147 0.018827,0.037654 -0.029768,0.096526 0,0.1262938 0.014884,0.014884 0.048263,-0.014884 0.063147,0 0.031573,0.031574 -0.031574,0.1578673 0,0.1894408 0.084196,0.084196 0.063147,-0.1052449 0.063147,0.063147"
       id="path11300"
       inkscape:connector-curvature="0" />
  </g>
</svg>
